<svg xmlns="http://www.w3.org/2000/svg" viewBox="0 0 800 500" preserveAspectRatio="xMidYMid slice">
  <defs>
    <radialGradient id="g6" cx="40%" cy="40%" r="75%">
      <stop offset="0%" stop-color="#0a2540"/>
      <stop offset="100%" stop-color="#051c2c"/>
    </radialGradient>
  </defs>
  <rect width="800" height="500" fill="url(#g6)"/>
  <g fill="#00a9f4">
    <circle cx="150" cy="120" r="2"/>
    <circle cx="220" cy="180" r="3"/>
    <circle cx="300" cy="140" r="2"/>
    <circle cx="370" cy="200" r="4"/>
    <circle cx="440" cy="160" r="2.5"/>
    <circle cx="520" cy="220" r="3"/>
    <circle cx="600" cy="170" r="2"/>
    <circle cx="680" cy="240" r="2.5"/>
    <circle cx="180" cy="280" r="2"/>
    <circle cx="260" cy="330" r="3"/>
    <circle cx="340" cy="290" r="2.5"/>
    <circle cx="420" cy="340" r="2"/>
    <circle cx="500" cy="310" r="4"/>
    <circle cx="580" cy="360" r="2.5"/>
    <circle cx="650" cy="320" r="2"/>
    <circle cx="200" cy="400" r="2"/>
    <circle cx="400" cy="420" r="3"/>
    <circle cx="560" cy="410" r="2"/>
  </g>
  <g stroke="#00a9f4" stroke-width="0.5" fill="none" opacity="0.35">
    <line x1="220" y1="180" x2="370" y2="200"/>
    <line x1="370" y1="200" x2="520" y2="220"/>
    <line x1="260" y1="330" x2="420" y2="340"/>
    <line x1="420" y1="340" x2="500" y2="310"/>
    <line x1="370" y1="200" x2="420" y2="340"/>
    <line x1="500" y1="310" x2="680" y2="240"/>
  </g>
</svg>
