<svg xmlns="http://www.w3.org/2000/svg" viewBox="0 0 800 500" preserveAspectRatio="xMidYMid slice">
  <defs>
    <linearGradient id="g1" x1="0" y1="0" x2="1" y2="1">
      <stop offset="0%" stop-color="#051c2c"/>
      <stop offset="100%" stop-color="#0a2540"/>
    </linearGradient>
    <linearGradient id="l1" x1="0" y1="0" x2="1" y2="0">
      <stop offset="0%" stop-color="#00a9f4" stop-opacity="0"/>
      <stop offset="50%" stop-color="#00a9f4" stop-opacity="0.9"/>
      <stop offset="100%" stop-color="#00a9f4" stop-opacity="0"/>
    </linearGradient>
  </defs>
  <rect width="800" height="500" fill="url(#g1)"/>
  <g fill="none" stroke="url(#l1)" stroke-width="1.5">
    <path d="M 0 250 Q 200 100 400 250 T 800 250"/>
    <path d="M 0 280 Q 200 140 400 280 T 800 280" opacity="0.75"/>
    <path d="M 0 220 Q 200 60 400 220 T 800 220" opacity="0.6"/>
    <path d="M 0 310 Q 200 180 400 310 T 800 310" opacity="0.5"/>
    <path d="M 0 190 Q 200 20 400 190 T 800 190" opacity="0.35"/>
    <path d="M 0 340 Q 200 220 400 340 T 800 340" opacity="0.3"/>
  </g>
  <g fill="#00a9f4">
    <circle cx="400" cy="250" r="4"/>
    <circle cx="200" cy="175" r="2" opacity="0.8"/>
    <circle cx="600" cy="175" r="2" opacity="0.8"/>
    <circle cx="100" cy="250" r="1.5" opacity="0.5"/>
    <circle cx="700" cy="250" r="1.5" opacity="0.5"/>
  </g>
</svg>
